<?xml version="1.0" standalone="no"?>
<!DOCTYPE svg PUBLIC "-//W3C//DTD SVG 20010904//EN"
 "http://www.w3.org/TR/2001/REC-SVG-20010904/DTD/svg10.dtd">
<svg version="1.0" xmlns="http://www.w3.org/2000/svg"
 width="230.000000pt" height="138.000000pt" viewBox="0 0 230.000000 138.000000"
 preserveAspectRatio="xMidYMid meet">

<g transform="translate(0.000000,138.000000) scale(0.100000,-0.100000)"
fill="#000000" stroke="none">
<path d="M0 690 l0 -690 1150 0 1150 0 0 690 0 690 -1150 0 -1150 0 0 -690z
m1245 514 c18 -28 16 -42 -25 -199 -10 -38 -23 -95 -29 -125 -5 -30 -28 -136
-50 -235 -23 -99 -48 -214 -57 -255 -9 -41 -22 -84 -29 -95 -6 -11 -15 -32
-18 -47 -6 -21 -15 -29 -44 -34 -52 -10 -68 4 -67 57 0 39 72 389 94 464 10
31 40 160 61 255 6 30 15 66 19 80 5 14 11 41 14 60 3 19 15 50 26 68 26 42
79 46 105 6z m-409 -207 c-4 -46 -12 -77 -23 -90 -26 -28 -92 -59 -230 -107
-109 -38 -163 -67 -163 -88 0 -4 62 -34 138 -66 280 -121 279 -119 267 -205
-13 -93 -9 -93 -206 -6 -238 106 -379 178 -408 209 -20 21 -23 32 -18 73 8 74
48 103 309 221 258 117 320 142 332 135 4 -3 5 -37 2 -76z m752 -23 c348 -158
392 -188 392 -267 0 -70 -37 -93 -439 -277 -74 -34 -149 -64 -168 -67 l-33 -6
0 72 c0 98 -1 97 215 186 50 21 108 45 130 55 22 10 48 20 58 24 51 17 -3 53
-170 112 -54 19 -127 49 -163 67 l-65 32 -3 59 c-2 45 1 63 15 78 23 25 30 23
231 -68z"/>
</g>
</svg>
