<?xml version="1.0" standalone="no"?>
<!DOCTYPE svg PUBLIC "-//W3C//DTD SVG 20010904//EN"
 "http://www.w3.org/TR/2001/REC-SVG-20010904/DTD/svg10.dtd">
<svg version="1.0" xmlns="http://www.w3.org/2000/svg"
 width="500.000000pt" height="401.000000pt" viewBox="0 0 500.000000 401.000000"
 preserveAspectRatio="xMidYMid meet">

<g transform="translate(0.000000,401.000000) scale(0.100000,-0.100000)"
fill="#000000" stroke="none">
<path d="M2439 3997 c-86 -24 -144 -70 -354 -279 l-211 -208 -280 0 c-359 0
-426 -12 -512 -94 -87 -81 -102 -157 -102 -515 l0 -284 -208 -211 c-247 -251
-267 -281 -267 -411 1 -129 26 -168 271 -416 l204 -205 0 -275 c0 -342 12
-403 92 -495 39 -45 107 -79 183 -93 33 -6 177 -11 329 -11 l270 0 215 -213
c185 -183 226 -219 285 -247 57 -29 80 -34 136 -34 56 0 79 5 136 34 59 28
100 64 285 247 l215 213 280 0 c160 0 306 5 339 11 76 14 144 48 183 93 81 92
92 152 92 505 l0 284 208 211 c247 251 267 283 267 411 -1 129 -26 168 -271
416 l-204 205 0 275 c0 347 -16 425 -102 505 -85 81 -154 94 -502 94 l-270 0
-215 213 c-182 180 -226 219 -281 245 -76 37 -147 47 -211 29z m191 -75 c42
-20 100 -71 248 -216 l194 -191 -129 -5 c-123 -5 -128 -6 -131 -27 l-3 -23
157 0 158 0 423 -422 423 -423 0 -600 0 -600 -116 -116 c-110 -110 -128 -139
-86 -139 9 0 59 42 110 93 l93 92 -3 -285 -3 -285 -31 -66 c-34 -72 -73 -108
-145 -136 -37 -14 -90 -17 -329 -21 l-285 -3 78 78 c42 43 77 86 77 96 0 37
-39 13 -130 -78 l-94 -95 -156 -2 c-147 -3 -155 -4 -155 -23 0 -19 8 -20 123
-23 67 -1 122 -6 122 -11 0 -4 -85 -91 -188 -193 -210 -206 -261 -240 -355
-242 -105 -1 -180 50 -407 278 l-165 166 121 0 c120 0 148 7 137 36 -4 11 -37
14 -155 14 l-150 0 -424 424 -424 425 0 598 0 598 105 105 c58 58 105 110 105
118 0 7 -7 15 -16 19 -11 4 -43 -22 -106 -83 l-89 -89 3 285 c3 250 6 290 22
330 42 99 104 150 210 169 33 6 172 11 310 11 l251 0 -84 -84 c-58 -58 -82
-89 -78 -100 4 -9 12 -16 19 -16 8 0 58 45 113 100 l99 99 146 3 c137 3 145 4
145 23 0 19 -8 20 -112 23 -62 1 -113 6 -113 10 0 11 337 342 383 377 92 68
182 77 287 27z m1152 -481 c56 -18 119 -71 145 -121 36 -71 44 -140 41 -392
l-3 -236 -220 218 c-121 119 -294 292 -385 384 l-165 167 275 -4 c175 -2 288
-8 312 -16z m636 -1310 c43 -87 43 -145 0 -231 -24 -49 -69 -102 -206 -242
-96 -98 -179 -178 -183 -178 -5 0 -9 243 -9 543 l0 542 183 -185 c147 -149
190 -198 215 -249z m-3438 -143 l0 -543 -183 185 c-147 149 -190 198 -215 249
-49 98 -43 175 21 271 32 47 355 380 369 380 4 0 8 -244 8 -542z m411 -1019
c58 -57 175 -175 260 -262 l154 -159 -275 4 c-226 4 -283 7 -318 21 -61 23
-99 53 -128 98 -44 71 -54 142 -54 409 l0 245 128 -126 c70 -70 175 -173 233
-230z"/>
<path d="M1934 2978 c-17 -13 -94 -76 -172 -142 -94 -79 -144 -128 -151 -149
-16 -43 -15 -1582 0 -1626 6 -17 19 -36 29 -41 12 -6 225 -10 557 -10 580 0
610 3 711 54 61 31 384 305 423 359 50 69 61 124 66 319 7 261 -17 369 -101
446 -23 21 -64 47 -92 57 -27 10 -51 20 -53 21 -2 2 10 19 27 38 49 56 57 94
57 266 0 124 -4 165 -18 207 -23 65 -86 137 -148 169 -101 51 -137 54 -640 54
l-465 0 -30 -22z m1031 -12 c112 -33 185 -91 227 -181 21 -46 23 -64 23 -215
0 -152 -2 -169 -23 -212 -13 -27 -41 -60 -65 -78 -38 -28 -39 -30 -16 -30 55
0 124 -33 176 -85 79 -80 88 -119 88 -385 0 -233 -4 -258 -57 -342 -35 -57
-99 -101 -188 -130 -63 -22 -80 -23 -599 -26 -393 -2 -542 0 -562 9 -21 8 -32
22 -39 50 -7 25 -10 303 -8 817 3 837 1 801 53 823 11 5 225 7 475 5 394 -3
463 -5 515 -20z"/>
<path d="M2190 2135 l0 -636 388 3 387 3 60 30 c91 46 99 66 103 254 4 168 -5
227 -43 277 -33 43 -104 74 -187 81 l-70 6 52 25 c43 20 56 33 73 71 19 40 22
65 22 196 0 140 -2 153 -25 200 -26 52 -68 87 -129 107 -23 7 -144 13 -333 15
l-298 5 0 -637z m599 604 c70 -15 112 -46 141 -104 23 -47 25 -60 25 -200 0
-137 -2 -153 -22 -185 -51 -83 -131 -100 -475 -100 l-248 0 0 300 0 300 265 0
c150 0 286 -5 314 -11z m220 -639 c32 -18 52 -39 70 -75 25 -47 26 -57 26
-215 0 -161 -1 -168 -25 -203 -14 -21 -45 -47 -70 -60 -44 -21 -55 -22 -422
-25 l-378 -3 0 306 0 306 378 -3 377 -3 44 -25z"/>
<path d="M2460 2455 l0 -125 116 0 c63 0 124 4 134 10 57 30 52 208 -7 231
-13 5 -74 9 -134 9 l-109 0 0 -125z"/>
<path d="M2460 1825 l0 -135 175 0 c220 0 215 -3 215 135 0 138 5 135 -215
135 l-175 0 0 -135z"/>
</g>
</svg>
